# xmcd
#
# Track frame offsets: 
#        150
#        12095
#        26163
#        40200
#        54060
#        66915
#        80542
#        93298
#        106622
#        118689
#        131012
#        144251
#        153941
#        166750
#        179341
#        188312
#        200830
#        213846
#        223739
#        235743
#
# Disc length: 3286 seconds
#
# Revision: 0
# Processed by: cddbd v1.5.2PL0 Copyright (c) Steve Scherf et al.
# Submitted via: ExactAudioCopy v1.0b3
#
DISCID=020cd414
DTITLE=Various Artist - BLUEA GIANT -BEST SELECTION- - Otis Rush and Magic Sam
DYEAR=2001
DGENRE=Blues
TTITLE0=Otis Rush - All Your Love
TTITLE1=Otis Rush - I Can't Quit You Baby
TTITLE2=Otis Rush - If You Are Mine
TTITLE3=Otis Rush - Groaning The Blues
TTITLE4=Otis Rush - Three Times A Fool
TTITLE5=Otis Rush - Love That Woman
TTITLE6=Otis Rush - It Takes Time
TTITLE7=Otis Rush - Checking On My Baby
TTITLE8=Otis Rush - My Baby's A Giid 'Un
TTITLE9=Otis Rush - Double Trouble
TTITLE10=Magic Sam - All Your Love
TTITLE11=Magic Sam - Love Me With A Feeling
TTITLE12=Magic Sam - Everything Gonna Be Alright
TTITLE13=Magic Sam - All Night Long
TTITLE14=Magic Sam - 21 Days In Jail
TTITLE15=Magic Sam - Easy Baby
TTITLE16=Magic Sam - My Love Is Your Love
TTITLE17=Magic Sam - Every Night About This Time
TTITLE18=Magic Sam - She Belongs To Me
TTITLE19=Magic Sam - Out Of Bad Luck
EXTD=
EXTT0=
EXTT1=
EXTT2=
EXTT3=
EXTT4=
EXTT5=
EXTT6=
EXTT7=
EXTT8=
EXTT9=
EXTT10=
EXTT11=
EXTT12=
EXTT13=
EXTT14=
EXTT15=
EXTT16=
EXTT17=
EXTT18=
EXTT19=
PLAYORDER=
